<svg width="40" height="40" viewBox="0 0 40 40" fill="none" xmlns="http://www.w3.org/2000/svg">
    <path d="M0 20C0 8.95431 8.95431 0 20 0C31.0457 0 40 8.95431 40 20C40 31.0457 31.0457 40 20 40C8.95431 40 0 31.0457 0 20Z" fill="#FBFBFB"/>
    <path fill-rule="evenodd" clip-rule="evenodd" d="M13 13.0002H27C28.6569 13.0002 30 14.3434 30 16.0002V25.0002C30 26.6571 28.6569 28.0002 27 28.0002H13C11.3431 28.0002 10 26.6571 10 25.0002V16.0002C10 14.3434 11.3431 13.0002 13 13.0002ZM27 26.0002C27.5523 26.0002 28 25.5525 28 25.0002V19.0002H12V25.0002C12 25.5525 12.4477 26.0002 13 26.0002H27ZM28 17.0005H12V16.0005C12 15.4482 12.4477 15.0005 13 15.0005H27C27.5523 15.0005 28 15.4482 28 16.0005V17.0005ZM20 21H14V23H20V21Z" fill="#252129"/>
</svg>
