<svg width="56" height="56" viewBox="0 0 56 56" fill="none" xmlns="http://www.w3.org/2000/svg">
<path d="M0 28C0 12.536 12.536 0 28 0C43.464 0 56 12.536 56 28C56 43.464 43.464 56 28 56C12.536 56 0 43.464 0 28Z" fill="#2F2F2F"/>
<path d="M34.9615 10H22.0385C19.8092 10 18 11.8327 18 14.0909V41.9091C18 44.1673 19.8092 46 22.0385 46H34.9615C37.1908 46 39 44.1673 39 41.9091V14.0909C39 11.8327 37.1908 10 34.9615 10ZM28.5 44.3636C27.1592 44.3636 26.0769 43.2673 26.0769 41.9091C26.0769 40.5509 27.1592 39.4545 28.5 39.4545C29.8408 39.4545 30.9231 40.5509 30.9231 41.9091C30.9231 43.2673 29.8408 44.3636 28.5 44.3636ZM35.7692 37.8182H21.2308V14.9091H35.7692V37.8182Z" fill="white"/>
</svg>
