<svg width="56" height="56" viewBox="0 0 56 56" fill="none" xmlns="http://www.w3.org/2000/svg">
<g clip-path="url(#clip0_148_393)">
<path d="M0 28C0 12.536 12.536 0 28 0C43.464 0 56 12.536 56 28C56 43.464 43.464 56 28 56C12.536 56 0 43.464 0 28Z" fill="#12103A"/>
<g clip-path="url(#clip1_148_393)">
<path d="M14 18.5398L18.1948 26.0377V30.6113L14.0049 38.0945L14 18.5398Z" fill="#5B57A2"/>
<path d="M30.1064 23.3093L34.0371 20.9001L42.0815 20.8926L30.1064 28.2286V23.3093Z" fill="#D90751"/>
<path d="M30.0838 18.4956L30.106 28.4226L25.9014 25.8391V11L30.084 18.4956H30.0838Z" fill="#FAB718"/>
<path d="M42.081 20.8927L34.0364 20.9002L30.0838 18.4956L25.9014 11L42.0807 20.8927H42.081Z" fill="#ED6F26"/>
<path d="M30.106 38.1361V33.3198L25.9014 30.7853L25.9037 45.6392L30.106 38.1361Z" fill="#63B22F"/>
<path d="M34.0272 35.7488L18.1945 26.0377L14 18.5398L42.0644 35.739L34.0269 35.7488H34.0272Z" fill="#1487C9"/>
<path d="M25.9043 45.6392L30.106 38.136L34.0269 35.7488L42.064 35.739L25.9043 45.6392Z" fill="#017F36"/>
<path d="M14.0049 38.0945L25.9361 30.7856L21.9248 28.3245L18.1948 30.6113L14.0049 38.0945Z" fill="#984995"/>
</g>
</g>
<defs>
<clipPath id="clip0_148_393">
<rect width="56" height="56" fill="white"/>
</clipPath>
<clipPath id="clip1_148_393">
<rect width="28" height="34.6392" fill="white" transform="translate(14 11)"/>
</clipPath>
</defs>
</svg>
