<svg width="56" height="56" viewBox="0 0 56 56" fill="none" xmlns="http://www.w3.org/2000/svg">
<path d="M0 28C0 12.536 12.536 0 28 0C43.464 0 56 12.536 56 28C56 43.464 43.464 56 28 56C12.536 56 0 43.464 0 28Z" fill="#8B3FFD"/>
<path d="M32.7964 14C24.8869 14 18.5952 20.5158 18.5952 28.5C18.5952 36.5759 24.9768 43 32.7964 43C40.616 43 46.9975 36.4842 46.9975 28.5C46.9975 20.5158 40.616 14 32.7964 14ZM32.7964 33.9146C29.9202 33.9146 27.4934 31.4367 27.4934 28.5C27.4934 25.5633 29.9202 23.0854 32.7964 23.0854C35.6726 23.0854 38.0993 25.5633 38.0993 28.5C38.0096 31.4367 35.6726 33.9146 32.7964 33.9146Z" fill="white"/>
<path d="M18.5048 18.2214V39.329H13.4714L7 18.2214H18.5048Z" fill="white"/>
</svg>
